<mxfile host="app.diagrams.net" modified="2023-05-15T17:18:11.660Z" agent="Mozilla/5.0 (Linux; Android 10; K) AppleWebKit/537.36 (KHTML, like Gecko) Chrome/113.0.0.0 Safari/537.36" etag="XOi4DSwOcGGGA9d_5730" version="21.3.2" type="github">
  <diagram name="第 1 页" id="0gCKScpp9jeklzMGLLRe">
    <mxGraphModel dx="883" dy="542" grid="1" gridSize="10" guides="1" tooltips="1" connect="1" arrows="1" fold="1" page="1" pageScale="1" pageWidth="827" pageHeight="1169" math="0" shadow="0">
      <root>
        <mxCell id="0" />
        <mxCell id="1" parent="0" />
        <mxCell id="NNbP9pBgAs0unNfAvB5G-26" value="" style="group" vertex="1" connectable="0" parent="1">
          <mxGeometry x="200" y="210" width="430" height="140" as="geometry" />
        </mxCell>
        <mxCell id="NNbP9pBgAs0unNfAvB5G-22" value="" style="shape=parallelogram;perimeter=parallelogramPerimeter;whiteSpace=wrap;html=1;fixedSize=1;size=90;rounded=1;strokeWidth=2;arcSize=32;" vertex="1" parent="NNbP9pBgAs0unNfAvB5G-26">
          <mxGeometry width="430" height="140" as="geometry" />
        </mxCell>
        <mxCell id="NNbP9pBgAs0unNfAvB5G-23" value="" style="endArrow=none;html=1;rounded=0;startSize=14;endSize=14;sourcePerimeterSpacing=8;targetPerimeterSpacing=8;curved=1;dashed=1;dashPattern=12 12;strokeWidth=1.5;" edge="1" parent="NNbP9pBgAs0unNfAvB5G-26">
          <mxGeometry width="50" height="50" relative="1" as="geometry">
            <mxPoint x="72" y="26" as="sourcePoint" />
            <mxPoint x="412" y="26" as="targetPoint" />
          </mxGeometry>
        </mxCell>
        <mxCell id="NNbP9pBgAs0unNfAvB5G-24" value="" style="endArrow=none;html=1;rounded=0;startSize=14;endSize=14;sourcePerimeterSpacing=8;targetPerimeterSpacing=8;curved=1;exitX=0;exitY=0.25;exitDx=0;exitDy=0;strokeWidth=2;" edge="1" parent="NNbP9pBgAs0unNfAvB5G-26">
          <mxGeometry width="50" height="50" relative="1" as="geometry">
            <mxPoint x="53.10526315789457" y="57.947368421052715" as="sourcePoint" />
            <mxPoint x="392" y="58" as="targetPoint" />
          </mxGeometry>
        </mxCell>
        <mxCell id="NNbP9pBgAs0unNfAvB5G-25" value="" style="endArrow=none;html=1;rounded=0;startSize=14;endSize=14;sourcePerimeterSpacing=8;targetPerimeterSpacing=8;curved=1;dashed=1;dashPattern=12 12;strokeWidth=1.5;entryX=1;entryY=0.75;entryDx=0;entryDy=0;" edge="1" parent="NNbP9pBgAs0unNfAvB5G-26" target="NNbP9pBgAs0unNfAvB5G-22">
          <mxGeometry width="50" height="50" relative="1" as="geometry">
            <mxPoint x="30" y="95" as="sourcePoint" />
            <mxPoint x="360" y="94" as="targetPoint" />
          </mxGeometry>
        </mxCell>
      </root>
    </mxGraphModel>
  </diagram>
</mxfile>
